<?xml version="1.0" standalone="no"?>
<!DOCTYPE svg PUBLIC "-//W3C//DTD SVG 20010904//EN"
 "http://www.w3.org/TR/2001/REC-SVG-20010904/DTD/svg10.dtd">
<svg version="1.0" xmlns="http://www.w3.org/2000/svg"
 width="1280.000000pt" height="1280.000000pt" viewBox="0 0 1280.000000 1280.000000"
 preserveAspectRatio="xMidYMid meet">
<metadata>
Created by potrace 1.15, written by Peter Selinger 2001-2017
</metadata>
<g transform="translate(0.000000,1280.000000) scale(0.100000,-0.100000)"
fill="#000000" stroke="none">
<path d="M10 12795 c0 -3 1332 -1337 2961 -2966 1628 -1628 2958 -2963 2956
-2966 -4 -4 -5508 5262 -5850 5596 l-78 76 3 -136 3 -137 3017 -2766 c1660
-1521 3021 -2766 3025 -2766 4 0 -8 16 -27 35 -19 19 -29 35 -22 35 7 0 12 -4
12 -10 0 -5 5 -10 12 -10 7 0 -5 18 -27 40 -24 25 -41 36 -46 29 -4 -7 -9 -8
-13 -1 -3 6 -1 12 6 14 6 2 -1268 1339 -2832 2971 l-2843 2967 -129 0 c-70 0
-128 -2 -128 -5z m5967 -5970 c8 -9 13 -18 11 -21 -3 -2 -13 5 -23 16 -21 23
-11 27 12 5z"/>
<path d="M567 12766 c69 -85 5548 -6054 5552 -6050 3 2 -12 21 -32 42 -41 42
-51 69 -12 32 15 -14 25 -18 25 -11 0 11 3 11 15 1 8 -7 15 -9 15 -6 0 4 -959
1361 -2132 3017 l-2131 3009 -134 0 -133 0 2251 -3001 c1238 -1650 2248 -3003
2246 -3006 -3 -2 -1075 1347 -2382 2999 l-2378 3003 -135 3 c-129 2 -135 2
-120 -15 158 -183 4968 -5966 4965 -5969 -3 -3 -1184 1343 -2626 2990 l-2621
2996 -131 0 -131 0 29 -34z"/>
<path d="M2140 12795 c0 -3 905 -1362 2010 -3020 1106 -1658 2010 -3018 2010
-3021 0 -4 -7 -1 -15 6 -12 10 -15 10 -15 0 0 -10 -3 -10 -15 0 -26 21 -17 -1
15 -37 17 -19 28 -40 24 -46 -3 -7 2 -3 10 7 19 23 20 32 6 41 -5 3 -10 12
-10 18 0 7 9 1 20 -13 11 -14 17 -32 14 -42 -3 -9 1 -20 7 -24 9 -5 10 -2 6
10 -4 10 -3 15 3 11 6 -3 10 -2 10 4 0 5 -4 13 -10 16 -5 3 -10 12 -10 18 0 7
8 3 17 -8 15 -19 15 -19 9 0 -5 14 -3281 6069 -3291 6083 -1 1 -61 1 -134 0
l-131 -3 1766 -3028 c971 -1665 1764 -3030 1762 -3032 -2 -3 -857 1360 -1900
3028 l-1895 3032 -131 3 c-73 1 -132 0 -132 -3z m4021 -6078 c12 -22 12 -22
-10 -3 -11 11 -21 23 -21 28 0 14 19 -1 31 -25z"/>
<path d="M4725 9750 c839 -1677 1525 -3053 1525 -3056 0 -3 -4 -3 -9 0 -4 3
-13 -6 -20 -21 -11 -24 -13 -25 -30 -9 -13 12 -21 14 -26 6 -3 -5 -11 -8 -16
-4 -5 3 -7 9 -4 14 3 4 -2 13 -10 20 -8 7 -15 9 -15 4 0 -4 -20 12 -45 36 -25
24 -45 39 -45 33 0 -6 7 -16 15 -23 8 -7 13 -16 10 -20 -2 -4 7 -18 20 -30 14
-13 25 -20 25 -15 0 5 11 -2 25 -15 13 -12 23 -26 22 -29 -1 -4 15 -22 35 -40
39 -34 43 -55 19 -85 -16 -19 -1 -22 19 -3 8 6 6 2 -4 -10 -22 -26 -11 -31 15
-7 16 14 16 18 3 31 -8 8 -11 19 -8 25 4 6 10 5 15 -3 5 -8 9 -10 9 -5 0 5 -7
17 -15 26 -14 15 -13 19 4 34 16 15 19 15 24 2 4 -9 3 -15 -1 -13 -4 1 -7 -2
-7 -8 0 -5 6 -8 14 -7 13 3 13 1 2 -12 -8 -9 -10 -16 -6 -16 4 0 16 11 27 26
11 14 23 23 26 20 2 -3 -1 -13 -8 -22 -12 -13 -11 -17 1 -24 8 -5 15 -14 15
-20 3 -21 4 -22 20 -9 14 11 15 10 12 -7 -2 -12 3 -19 12 -19 13 0 15 25 14
170 -1 177 -241 6018 -250 6093 l-5 42 -130 0 c-123 0 -129 -1 -129 -20 0 -11
114 -1396 254 -3078 140 -1681 254 -3087 252 -3124 -1 -37 -6 -71 -11 -75 -4
-4 -5 -2 -1 5 4 7 4 18 -1 25 -10 14 -10 30 0 72 5 20 -129 1122 -373 3075
-209 1675 -383 3062 -386 3083 l-6 37 -132 0 -133 0 514 -3082 c513 -3077 514
-3083 498 -3126 -9 -23 -21 -40 -26 -36 -5 3 -3 15 6 27 8 12 15 26 15 32 0 5
-5 3 -11 -5 -8 -12 -9 -10 -4 7 4 14 -21 114 -64 263 -39 132 -102 348 -141
480 -38 132 -101 348 -140 480 -38 132 -101 348 -140 480 -38 132 -101 348
-140 480 -38 132 -101 348 -140 480 -38 132 -101 348 -140 480 -38 132 -101
348 -140 480 -38 132 -101 348 -140 480 -38 132 -101 348 -140 480 -38 132
-101 347 -139 478 -38 130 -106 363 -151 517 -45 154 -103 352 -129 440 l-47
160 -132 3 c-73 1 -132 0 -132 -3 0 -3 461 -1389 1025 -3080 1005 -3015 1025
-3076 1010 -3105 -18 -34 -21 -36 -29 -14 -4 9 -2 13 5 8 8 -4 8 -1 0 14 -13
24 -15 43 -2 23 7 -11 10 -10 15 6 4 12 -395 1090 -1143 3084 l-1149 3064
-132 3 c-123 2 -132 1 -128 -15 3 -10 578 -1392 1278 -3071 700 -1679 1270
-3055 1268 -3057 -2 -2 -637 1380 -1412 3071 l-1409 3074 -134 0 -133 0 1525
-3050z m1375 -3052 c0 -12 -6 -9 -26 13 -19 22 -19 22 4 8 12 -8 22 -17 22
-21z m165 -48 c1 -17 -1 -28 -3 -25 -3 3 -15 -4 -27 -15 l-21 -20 -29 30 c-21
22 -26 33 -18 41 8 8 15 5 25 -10 15 -21 15 -21 28 4 7 13 17 22 22 19 4 -3 8
0 8 7 0 25 13 -2 15 -31z m80 -109 c3 -5 2 -12 -3 -15 -5 -3 -9 1 -9 9 0 17 3
19 12 6z"/>
<path d="M6250 6659 c0 -5 -4 -8 -9 -4 -6 3 -15 -4 -22 -16 l-11 -22 -20 24
c-16 19 -17 20 -9 3 20 -42 37 -47 60 -18 20 25 27 44 16 44 -3 0 -5 -5 -5
-11z m-24 -37 c-17 -16 -18 -16 -5 5 7 12 15 20 18 17 3 -2 -3 -12 -13 -22z"/>
<path d="M4807 12773 c3 -16 352 -1407 774 -3093 422 -1686 768 -3059 768
-3053 1 7 -281 1364 -625 3015 -344 1652 -632 3038 -641 3081 l-16 77 -134 0
-133 0 7 -27z"/>
<path d="M6400 9640 c0 -2908 1 -3160 16 -3160 14 0 14 3 4 15 -10 12 -12 57
-7 198 9 245 245 5931 250 6030 l5 77 -134 0 -134 0 0 -3160z"/>
<path d="M6930 12780 c0 -11 -114 -1396 -254 -3078 -140 -1681 -254 -3086
-253 -3122 3 -73 10 -92 33 -83 8 3 12 8 10 11 -7 7 13 32 26 32 5 0 6 -6 1
-12 -14 -23 -13 -40 2 -28 7 6 12 18 11 28 -4 24 23 50 34 32 6 -10 9 -10 14
1 3 8 4 1 1 -16 -4 -22 -3 -26 4 -15 6 8 13 11 16 8 11 -11 -46 -79 -59 -71
-6 4 -4 -1 3 -11 13 -16 13 -17 -5 -14 -12 2 -19 -3 -19 -12 0 -13 25 -15 170
-14 177 1 6018 241 6093 250 l42 5 0 130 c0 123 -1 129 -20 129 -11 0 -1396
-114 -3078 -254 -1681 -140 -3087 -254 -3124 -252 -37 1 -71 6 -75 11 -4 4 -2
5 5 1 7 -4 18 -4 25 1 14 10 30 10 72 0 20 -5 1122 129 3075 373 1675 209
3062 383 3083 386 l37 6 0 132 0 133 -3082 -514 c-3077 -513 -3083 -514 -3126
-498 -23 9 -40 21 -36 26 3 5 15 3 27 -6 12 -8 26 -15 32 -15 5 0 3 5 -5 11
-12 8 -10 9 7 4 14 -4 114 21 263 64 132 39 348 102 480 141 132 38 348 101
480 140 568 166 392 114 960 280 132 38 348 101 480 140 132 38 348 101 480
140 132 38 348 101 480 140 132 38 348 101 480 140 132 38 348 101 480 140
132 39 347 101 478 139 130 38 363 106 517 151 154 45 352 103 440 129 l160
47 3 132 c1 73 0 132 -3 132 -3 0 -1389 -461 -3080 -1025 -3015 -1005 -3076
-1025 -3105 -1010 -34 18 -36 21 -14 29 9 4 13 2 8 -5 -4 -8 -1 -8 14 0 24 13
43 15 23 2 -11 -7 -10 -10 6 -15 12 -4 1090 395 3084 1143 l3064 1149 3 132
c2 123 1 132 -15 128 -10 -3 -1392 -578 -3071 -1278 -1679 -700 -3055 -1270
-3057 -1268 -2 2 1380 637 3071 1412 l3074 1409 0 134 0 133 -3050 -1525
c-1677 -839 -3053 -1525 -3056 -1525 -3 0 -2 5 1 10 3 6 2 10 -4 10 -5 0 -13
-4 -16 -10 -3 -6 -12 -10 -18 -10 -7 0 -3 8 8 17 17 13 17 15 2 9 -10 -3 -16
-2 -13 2 2 4 -9 7 -24 7 -16 1 -26 -3 -23 -9 4 -5 0 -6 -8 -1 -8 5 -6 -1 4
-12 16 -18 16 -21 3 -26 -9 -4 -15 -1 -13 6 1 7 -4 11 -10 10 -7 -2 -13 0 -13
4 0 3 68 72 151 151 96 93 146 148 139 152 -8 5 998 1062 2755 2896 1522 1589
2802 2924 2844 2967 l76 78 -136 -3 -137 -3 -2766 -3017 c-1521 -1660 -2766
-3021 -2766 -3025 0 -4 14 6 30 22 17 16 30 26 30 22 0 -9 -132 -135 -143
-136 -4 0 -21 -17 -39 -36 -31 -36 -78 -69 -63 -45 6 10 3 10 -11 2 -14 -8
-23 -7 -36 5 -10 9 -18 11 -18 5 0 -6 5 -14 10 -17 14 -8 13 -25 -2 -25 -6 0
-8 3 -5 6 3 4 0 16 -8 28 -8 11 -15 25 -15 31 0 5 5 3 11 -5 8 -12 9 -10 4 7
-4 14 21 114 64 263 39 132 103 348 141 480 39 132 102 348 140 480 39 132
102 348 140 480 39 132 102 348 140 480 39 132 102 348 140 480 39 132 102
348 140 480 39 132 102 348 140 480 39 132 102 348 140 480 39 132 102 348
140 480 39 132 101 347 139 478 38 130 106 363 151 517 45 154 103 352 129
440 l47 160 -129 3 c-71 1 -132 0 -134 -2 -3 -3 -353 -1395 -779 -3093 -426
-1698 -771 -3070 -768 -3048 3 22 291 1410 640 3084 349 1675 634 3049 634
3053 0 5 -59 7 -132 6 l-132 -3 -513 -3075 c-504 -3018 -513 -3076 -499 -3122
8 -28 10 -50 5 -54 -5 -3 -6 -10 -3 -16 4 -7 2 -8 -4 -4 -7 4 -12 2 -12 -5 0
-7 -3 -9 -6 -6 -4 4 -3 12 2 19 11 15 11 30 1 73 -5 20 129 1122 373 3075 209
1675 383 3062 386 3083 l6 37 -136 0 c-130 0 -136 -1 -136 -20z m-103 -5954
c-36 -36 -47 -32 -12 4 16 16 30 28 33 26 2 -3 -7 -16 -21 -30z m-187 -266
c-17 -10 15 -21 38 -13 9 3 14 2 10 -2 -10 -10 -69 -14 -62 -4 2 4 0 10 -6 14
-15 10 -2 25 16 18 11 -4 12 -8 4 -13z m-44 -77 c-7 -7 -26 7 -26 19 0 6 6 6
15 -2 9 -7 13 -15 11 -17z"/>
<path d="M7507 9720 l-1027 -3081 17 -32 c9 -18 18 -27 20 -20 2 6 15 10 28 7
19 -3 31 5 56 36 17 21 35 37 39 35 4 -2 27 17 51 43 24 26 32 36 17 23 -16
-14 -28 -21 -28 -18 0 4 1197 1375 2660 3047 l2660 3040 -133 0 -134 0 -2513
-3016 c-1383 -1659 -2516 -3012 -2518 -3005 -3 9 -7 9 -18 0 -8 -6 -14 -8 -14
-5 0 4 958 1360 2130 3014 l2130 3007 -131 3 c-73 1 -133 1 -134 0 -16 -19
-4025 -6040 -4025 -6044 0 -4 7 -1 15 6 8 7 15 8 15 2 0 -5 -7 -15 -15 -22 -8
-7 -15 -17 -15 -22 0 -6 8 -4 17 3 14 12 14 10 -1 -13 -20 -31 -32 -37 -22
-12 3 8 2 12 -4 9 -14 -9 -12 9 2 23 6 6 9 14 6 17 -3 3 -16 -10 -28 -30 -12
-20 -24 -34 -26 -32 -3 3 2474 3975 3768 6040 l48 77 -133 0 -134 0 -1779
-3049 c-978 -1678 -1780 -3048 -1782 -3046 -3 2 736 1372 1642 3043 905 1672
1646 3042 1646 3046 0 3 -58 6 -130 6 l-130 0 -1525 -3050 c-839 -1677 -1525
-3053 -1525 -3056 0 -3 5 -2 10 1 6 3 10 2 10 -4 0 -5 -4 -13 -10 -16 -5 -3
-10 -12 -10 -18 0 -7 7 -4 14 6 12 16 14 15 14 -9 0 -14 -4 -21 -7 -15 -5 7
-12 2 -21 -13 -15 -30 -34 -24 -25 7 5 17 4 19 -4 7 -6 -8 -11 -12 -11 -8 0 5
633 1388 1406 3075 773 1688 1408 3074 1411 3081 4 9 -26 12 -128 12 l-134 -1
-1280 -3074 c-704 -1690 -1281 -3071 -1283 -3066 -1 4 502 1352 1119 2996 617
1645 1134 3025 1150 3068 l28 77 -133 0 -133 0 -1026 -3080z m-817 -2975 c-7
-9 -15 -13 -18 -10 -3 2 1 11 8 20 7 9 15 13 18 10 3 -2 -1 -11 -8 -20z m-10
-38 c0 -2 -10 -12 -22 -23 l-23 -19 19 23 c18 21 26 27 26 19z m-67 -24 c-5
-12 -3 -14 8 -8 8 5 -1 -10 -20 -33 -18 -24 -35 -42 -36 -40 -9 8 -3 23 8 23
6 0 13 10 13 22 1 13 7 29 14 38 16 20 21 19 13 -2z m-104 -63 c11 -24 11 -24
-3 -6 -9 11 -16 24 -16 30 0 12 5 7 19 -24z"/>
<path d="M8949 9799 c-1238 -1650 -2248 -3003 -2246 -3006 4 -3 4729 5959
4751 5995 6 9 -22 12 -123 12 l-131 0 -2251 -3001z"/>
<path d="M9832 9832 c-1630 -1630 -2962 -2966 -2959 -2969 4 -4 5560 5311
5850 5596 l78 77 -3 129 -3 130 -2963 -2963z"/>
<path d="M9704 9429 c-1699 -1557 -3090 -2832 -3092 -2834 -1 -1 8 -2 20 -1
13 1 36 -4 51 -12 28 -13 94 22 3070 1634 1673 906 3043 1648 3045 1649 1 1 1
61 0 134 l-3 131 -3028 -1766 c-1665 -971 -3030 -1764 -3032 -1762 -3 2 1360
857 3028 1900 l3032 1895 3 131 c1 73 0 132 -3 132 -3 0 -1362 -904 -3020
-2010 -1658 -1106 -3018 -2010 -3021 -2010 -4 0 -1 7 6 15 7 8 8 15 2 15 -5 0
-15 -7 -22 -15 -7 -8 -18 -15 -24 -15 -6 0 5 14 24 30 19 16 30 30 24 30 -5 0
-17 -6 -24 -12 -8 -7 1 4 19 25 19 20 39 37 45 37 5 0 -1 -11 -14 -25 -14 -15
-18 -25 -11 -25 11 0 11 -3 1 -15 -7 -8 -9 -15 -6 -15 4 0 1361 959 3017 2132
l3009 2131 0 134 0 133 -3001 -2251 c-1650 -1238 -3003 -2248 -3006 -2246 -2
3 1347 1075 2999 2382 l3003 2378 3 135 c2 129 2 135 -15 120 -183 -158 -5966
-4968 -5969 -4965 -3 3 1343 1184 2990 2626 l2996 2621 0 130 c0 72 -2 130 -4
130 -2 0 -1393 -1274 -3092 -2831z m-2999 -2775 c-18 -16 -23 -24 -12 -20 11
3 16 2 12 -4 -3 -6 -2 -10 4 -10 5 0 13 5 16 10 3 6 12 10 18 10 7 0 1 -9 -13
-20 -14 -11 -19 -20 -12 -20 7 0 10 -4 7 -10 -3 -5 -11 -10 -16 -10 -6 0 -7 5
-3 12 5 8 2 9 -10 5 -10 -4 -15 -3 -11 3 4 7 -5 9 -24 5 l-30 -5 42 40 c23 22
47 39 52 39 6 0 -3 -11 -20 -25z"/>
<path d="M0 11867 l0 -134 3016 -2513 c1659 -1383 3012 -2516 3005 -2518 -9
-3 -9 -7 0 -18 6 -8 8 -14 5 -14 -4 0 -1360 958 -3014 2130 l-3007 2130 -3
-131 c-1 -73 -1 -133 0 -134 19 -16 6040 -4025 6044 -4025 4 0 1 7 -6 15 -7 8
-8 15 -2 15 5 0 15 -7 22 -15 7 -8 17 -15 22 -15 6 0 4 8 -3 17 -12 14 -10 14
14 -1 30 -20 36 -32 11 -22 -8 3 -12 2 -9 -4 9 -14 -9 -12 -23 2 -6 6 -14 9
-17 6 -3 -3 10 -16 30 -28 20 -12 34 -24 32 -26 -3 -3 -3975 2474 -6039 3768
l-78 48 0 -133 0 -134 3049 -1779 c1678 -978 3048 -1780 3046 -1782 -2 -3
-1372 736 -3043 1642 -1672 905 -3042 1646 -3046 1646 -3 0 -6 -58 -6 -130 l0
-130 3050 -1525 c1677 -839 3053 -1525 3056 -1525 3 0 2 5 -1 10 -3 6 -2 10 4
10 5 0 13 -4 16 -10 3 -6 12 -10 18 -10 7 0 4 7 -6 14 -16 12 -15 14 9 14 18
0 22 -3 13 -9 -11 -7 -11 -9 1 -9 13 0 13 -1 0 -10 -13 -9 -13 -10 0 -10 13 0
13 -1 0 -10 -12 -8 -12 -10 -1 -10 8 0 12 -2 9 -6 -3 -3 -1387 628 -3074 1402
-1688 773 -3075 1408 -3082 1411 -9 4 -12 -26 -12 -128 l1 -134 3074 -1280
c1690 -704 3071 -1281 3066 -1283 -4 -1 -1352 502 -2996 1119 -1645 617 -3025
1134 -3068 1150 l-77 28 0 -133 0 -133 3081 -1027 c2340 -780 3084 -1024 3097
-1016 13 7 14 9 3 10 -11 0 -10 4 4 14 33 24 28 52 -15 87 -22 18 -37 35 -35
39 6 9 -22 33 -40 36 -7 1 -1381 1199 -3054 2663 l-3041 2661 0 -133z m6060
-5182 c7 -8 8 -15 2 -15 -5 0 -15 7 -22 15 -7 8 -8 15 -2 15 5 0 15 -7 22 -15z
m61 -32 c13 -16 12 -17 -3 -4 -10 7 -18 15 -18 17 0 8 8 3 21 -13z m68 -99
c-9 -11 -9 -14 0 -14 7 0 9 -4 6 -10 -12 -20 -22 -9 -21 23 1 27 -3 32 -22 33
-13 1 -31 9 -40 18 -16 16 -16 17 2 10 15 -6 17 -4 11 7 -5 8 10 -1 33 -20 34
-26 40 -36 31 -47z"/>
<path d="M0 11331 l0 -131 3001 -2251 c1650 -1238 3003 -2248 3006 -2246 3 4
-5959 4729 -5994 4751 -10 6 -13 -22 -13 -123z"/>
<path d="M0 8136 l0 -136 28 -7 c15 -3 1406 -352 3092 -774 1686 -422 3059
-768 3052 -768 -11 -1 -114 20 -737 150 -132 28 -346 72 -475 99 -129 27 -345
72 -480 100 -135 28 -352 73 -482 101 -131 27 -345 71 -475 98 -131 28 -347
73 -480 100 -134 28 -350 73 -480 100 -131 28 -347 73 -480 100 -134 28 -351
74 -483 101 -132 28 -348 73 -480 100 -132 28 -349 73 -482 101 -134 27 -328
68 -431 90 -103 21 -192 39 -198 39 -6 0 -9 -51 -7 -132 l3 -132 3075 -513
c2830 -473 3078 -512 3115 -501 50 15 56 16 53 3 -2 -5 -7 -10 -13 -11 -5 0
-24 -4 -40 -7 -20 -5 -1122 129 -3075 373 -1675 209 -3062 383 -3082 386 l-38
6 0 -136 c0 -130 1 -136 20 -136 11 0 1396 -114 3078 -254 1681 -140 3086
-254 3122 -253 36 2 70 6 77 10 14 9 6 37 -9 34 -6 -1 -12 3 -15 10 -3 8 3 11
17 8 17 -3 20 -1 10 9 -13 17 -38 15 -49 -3 -5 -7 -11 -12 -15 -12 -3 1 -7 1
-8 0 -30 -13 -107 2 -310 62 -131 38 -346 101 -478 139 -132 39 -348 102 -480
140 -132 39 -348 102 -480 140 -132 39 -348 102 -480 140 -132 39 -348 102
-480 140 -132 39 -348 102 -480 140 -132 39 -348 102 -480 140 -132 39 -348
102 -480 140 -132 39 -347 101 -477 139 -131 38 -364 106 -518 151 -154 45
-354 103 -445 130 -91 27 -268 79 -395 115 -126 37 -233 69 -237 72 -5 2 -8
-57 -8 -131z m6273 -1689 c-4 -7 0 -8 13 -3 15 6 17 5 7 -5 -10 -10 -16 -10
-25 -1 -7 7 -8 12 -4 12 5 0 2 8 -5 18 -13 15 -12 16 3 3 10 -7 15 -18 11 -24z"/>
<path d="M9700 7225 c-1697 -425 -3079 -774 -3072 -774 11 -1 110 19 732 149
129 27 344 72 478 99 133 28 351 74 485 102 133 27 349 72 480 100 130 27 345
72 477 99 132 28 348 73 480 100 132 28 347 72 478 99 130 28 346 73 480 100
308 65 657 137 960 200 276 58 632 132 920 192 l202 43 0 133 c0 73 -3 133 -7
132 -5 0 -1396 -349 -3093 -774z"/>
<path d="M6539 6683 c-5 -25 -4 -61 0 -57 7 6 11 64 5 64 -2 0 -5 -3 -5 -7z"/>
<path d="M0 6534 l0 -134 3160 0 c2908 0 3160 1 3160 16 0 14 -3 14 -15 4 -12
-10 -57 -12 -198 -7 -245 9 -5931 245 -6029 250 l-78 5 0 -134z"/>
<path d="M6296 6635 c-9 -26 -7 -32 5 -12 6 10 9 21 6 23 -2 3 -7 -2 -11 -11z"/>
<path d="M6120 6540 c8 -5 20 -10 25 -10 6 0 3 5 -5 10 -8 5 -19 10 -25 10 -5
0 -3 -5 5 -10z"/>
<path d="M6296 6531 c-3 -5 2 -15 12 -22 15 -12 16 -12 5 2 -7 9 -10 19 -6 22
3 4 4 7 0 7 -3 0 -8 -4 -11 -9z"/>
<path d="M6509 6493 c-12 -16 -12 -17 2 -6 9 7 20 9 24 5 5 -4 5 -1 1 6 -9 16
-11 15 -27 -5z"/>
<path d="M6620 6500 c8 -5 20 -10 25 -10 6 0 3 5 -5 10 -8 5 -19 10 -25 10 -5
0 -3 -5 5 -10z"/>
<path d="M6480 6384 c0 -14 3 -14 15 -4 12 10 57 12 198 7 245 -9 5931 -245
6030 -250 l77 -5 0 134 0 134 -3160 0 c-2908 0 -3160 -1 -3160 -16z"/>
<path d="M6000 6384 c-19 -2 -1358 -58 -2975 -124 -1617 -67 -2959 -123 -2982
-126 l-43 -5 0 -130 c0 -123 1 -129 20 -129 11 0 1396 114 3078 254 1681 140
3087 254 3124 252 37 -1 71 -6 75 -11 4 -4 2 -5 -5 -1 -7 4 -18 4 -25 -1 -14
-10 -30 -10 -72 0 -20 5 -1122 -129 -3075 -373 -1675 -209 -3062 -383 -3083
-386 l-37 -6 0 -132 0 -133 3082 514 c3077 513 3083 514 3126 498 23 -9 40
-21 36 -26 -3 -5 -15 -3 -27 6 -12 8 -26 15 -32 15 -5 0 -3 -5 5 -11 12 -8 10
-9 -7 -4 -14 4 -114 -21 -263 -64 -132 -39 -348 -102 -480 -141 -132 -38 -348
-101 -480 -140 -132 -38 -348 -101 -480 -140 -132 -38 -348 -101 -480 -140
-132 -38 -348 -101 -480 -140 -132 -38 -348 -101 -480 -140 -132 -38 -348
-101 -480 -140 -132 -38 -348 -101 -480 -140 -132 -38 -348 -101 -480 -140
-132 -38 -347 -101 -478 -139 -130 -38 -363 -106 -517 -151 -154 -45 -352
-103 -440 -129 l-160 -47 -3 -132 c-1 -73 0 -132 3 -132 3 0 1389 461 3080
1025 1751 584 3081 1022 3090 1018 13 -5 14 -7 3 -14 -10 -7 -10 -9 2 -9 13 0
13 -1 0 -10 -8 -5 -19 -10 -25 -10 -5 0 -4 4 4 9 11 7 10 10 -6 15 -12 4
-1090 -395 -3084 -1143 l-3064 -1149 -3 -132 c-2 -123 -1 -132 15 -128 10 3
1392 578 3071 1278 1679 700 3055 1270 3057 1268 2 -2 -1380 -637 -3071 -1412
l-3074 -1409 0 -134 0 -133 3050 1525 c1677 839 3053 1525 3056 1525 3 0 2 -4
-1 -10 -3 -5 -2 -10 4 -10 5 0 13 5 16 10 3 6 12 10 18 10 7 0 3 -8 -8 -17
-17 -13 -17 -15 -2 -9 10 3 16 2 13 -2 -2 -4 9 -7 24 -7 16 -1 26 3 23 9 -4 5
0 6 8 1 8 -5 5 1 -5 13 -11 12 -14 22 -8 22 6 0 14 -5 17 -10 4 -6 11 -8 16
-5 5 4 9 3 9 -1 0 -4 -68 -73 -151 -152 -96 -93 -146 -148 -139 -152 8 -5
-998 -1062 -2755 -2896 -1522 -1589 -2802 -2924 -2844 -2967 l-76 -78 136 3
137 3 2766 3017 c1521 1660 2766 3021 2766 3025 0 4 -13 -6 -30 -22 -16 -16
-30 -26 -30 -22 0 9 133 135 141 133 3 0 20 16 38 37 34 38 81 72 66 47 -6
-10 -3 -10 11 -2 14 8 23 7 36 -5 10 -9 18 -11 18 -5 0 6 -4 14 -10 17 -7 5
-7 50 0 50 1 0 3 8 5 18 3 14 0 16 -10 7 -7 -6 -12 -18 -11 -28 4 -24 -23 -50
-34 -32 -6 10 -9 10 -14 -1 -3 -8 -4 -3 -2 10 4 17 -2 30 -20 44 -14 10 -23
22 -20 25 3 2 13 -1 22 -8 13 -12 17 -11 24 1 5 8 14 15 20 15 21 3 22 4 9 20
-11 14 -10 15 7 12 12 -2 19 3 19 12 0 13 -22 15 -135 16 -74 0 -151 -1 -170
-2z m274 -42 c3 -5 -1 -9 -9 -9 -8 0 -12 4 -9 9 3 4 7 8 9 8 2 0 6 -4 9 -8z
m-50 -61 c15 -16 15 -19 2 -24 -15 -6 -29 7 -32 31 -3 18 10 15 30 -7z m-50
-20 c-2 -2 1 -10 7 -17 13 -16 -2 -26 -21 -13 -13 7 -13 9 0 9 13 0 13 1 0 10
-8 5 -24 7 -35 4 -15 -4 -16 -3 -6 4 13 9 64 12 55 3z m-189 -291 c-16 -16
-30 -28 -33 -26 -5 6 41 55 52 55 6 1 -3 -12 -19 -29z"/>
<path d="M6500 6365 c-5 -6 -5 -17 0 -25 7 -10 10 -11 10 -2 0 6 5 12 11 12 5
0 7 -5 3 -12 -4 -6 -3 -8 4 -4 6 3 13 2 17 -4 6 -10 -3 -13 -38 -13 -13 0 -15
-3 -7 -12 13 -16 39 -13 51 6 5 8 9 10 9 6 0 -5 10 -1 22 7 12 9 27 16 33 16
5 0 3 -5 -5 -11 -12 -8 -10 -9 7 -4 14 4 114 -21 263 -64 132 -39 348 -102
480 -141 132 -38 348 -101 480 -140 132 -38 348 -101 480 -140 132 -38 348
-101 480 -140 132 -38 348 -101 480 -140 132 -38 348 -101 480 -140 132 -38
348 -101 480 -140 132 -38 348 -101 480 -140 132 -38 348 -101 480 -140 132
-38 347 -101 478 -139 130 -38 363 -106 517 -151 154 -45 352 -103 440 -129
l160 -47 3 129 c1 71 0 132 -2 134 -3 3 -1395 353 -3093 778 -1698 425 -3082
774 -3075 774 11 1 110 -19 732 -149 129 -27 343 -71 475 -99 132 -27 350 -73
485 -101 312 -65 661 -138 960 -200 299 -62 648 -135 960 -200 135 -28 352
-73 483 -101 130 -27 344 -71 475 -98 264 -56 593 -124 962 -201 135 -28 330
-69 433 -91 103 -21 192 -39 198 -39 6 0 9 51 7 132 l-3 132 -3075 513 c-2868
479 -3078 512 -3120 501 -25 -7 -46 -11 -47 -10 -6 5 3 17 12 18 6 0 24 4 40
7 20 5 1122 -129 3075 -373 1675 -209 3062 -383 3083 -386 l37 -6 0 136 c0
130 -1 136 -20 136 -11 0 -1396 114 -3078 254 -1681 140 -3088 254 -3125 253
-38 -1 -73 -7 -77 -12z m34 -3 c2 -4 -4 -8 -14 -8 -10 0 -16 4 -14 8 3 4 9 8
14 8 5 0 11 -4 14 -8z"/>
<path d="M5910 6299 c-273 -58 -475 -100 -1432 -300 -131 -27 -346 -71 -478
-99 -132 -27 -348 -72 -480 -100 -132 -27 -348 -72 -480 -100 -132 -27 -347
-72 -477 -99 -303 -63 -652 -136 -960 -200 -134 -28 -351 -73 -483 -101 -316
-66 -667 -139 -917 -191 l-203 -43 0 -133 0 -133 28 7 c15 3 1406 352 3092
774 1686 422 3056 767 3045 767 -11 0 -126 -22 -255 -49z"/>
<path d="M6285 6310 c-4 -6 -11 -7 -17 -4 -7 4 -8 2 -4 -5 6 -9 11 -9 22 0 14
11 18 19 10 19 -3 0 -8 -5 -11 -10z"/>
<path d="M6380 6305 c10 -12 12 -57 7 -198 -9 -245 -245 -5931 -250 -6029 l-5
-78 134 0 134 0 0 3160 c0 2908 -1 3160 -16 3160 -14 0 -14 -3 -4 -15z"/>
<path d="M6567 6303 c-13 -16 -13 -20 -1 -31 8 -7 12 -18 8 -24 -4 -6 -9 -5
-15 3 -5 8 -9 10 -9 5 0 -5 7 -17 15 -26 14 -15 13 -19 -4 -34 -16 -15 -19
-15 -24 -2 -4 9 -3 15 1 13 4 -1 7 3 7 8 0 6 -6 8 -14 7 -13 -3 -13 -1 -2 12
8 9 10 16 6 16 -4 0 -16 -11 -27 -26 -11 -14 -23 -23 -26 -20 -2 3 1 13 8 22
12 13 11 17 -1 24 -8 5 -15 14 -15 20 -3 21 -4 22 -20 9 -14 -11 -15 -10 -12
7 2 12 -3 19 -12 19 -13 0 -15 -25 -14 -170 1 -177 241 -6018 250 -6092 l5
-43 130 0 c123 0 129 1 129 20 0 11 -114 1396 -254 3078 -140 1681 -254 3087
-252 3124 1 37 6 71 11 75 4 4 5 2 1 -5 -4 -7 -4 -18 1 -25 10 -14 10 -30 0
-72 -5 -20 129 -1122 373 -3075 209 -1675 383 -3062 386 -3083 l6 -37 132 0
133 0 -514 3082 c-513 3077 -514 3083 -498 3126 9 23 21 40 26 36 5 -3 3 -15
-6 -27 -8 -12 -15 -26 -15 -32 0 -5 5 -3 11 5 8 12 9 10 4 -7 -4 -14 21 -114
64 -263 39 -132 103 -348 141 -480 39 -132 102 -348 140 -480 39 -132 102
-348 140 -480 39 -132 102 -348 140 -480 39 -132 102 -348 140 -480 39 -132
102 -348 140 -480 39 -132 102 -348 140 -480 39 -132 102 -348 140 -480 39
-132 102 -348 140 -480 39 -132 101 -347 139 -478 38 -130 106 -363 151 -517
45 -154 103 -352 129 -440 l47 -160 132 -3 c73 -1 132 0 132 3 0 3 -461 1389
-1025 3080 -1005 3015 -1025 3076 -1010 3105 18 34 21 36 29 14 4 -9 2 -13 -5
-8 -8 4 -8 1 0 -14 13 -24 15 -43 2 -23 -7 11 -10 10 -15 -6 -4 -12 395 -1090
1143 -3084 l1149 -3064 132 -3 c123 -2 132 -1 128 15 -3 10 -578 1392 -1278
3071 -700 1679 -1270 3055 -1268 3057 2 2 637 -1380 1412 -3071 l1409 -3074
134 0 133 0 -1525 3050 c-839 1677 -1525 3053 -1525 3056 0 3 5 2 10 -1 6 -3
10 -2 10 4 0 5 -4 13 -10 16 -5 3 -10 12 -10 18 0 7 8 3 17 -8 13 -17 15 -17
9 -2 -3 10 -2 16 2 13 5 -3 8 11 7 32 l-2 36 58 -64 c32 -36 58 -60 59 -54 0
6 -11 21 -25 34 -13 12 -23 26 -22 29 1 4 -15 22 -35 40 -36 31 -42 51 -25 79
6 9 13 9 28 1 12 -6 23 -8 27 -5 3 3 -1 6 -8 6 -7 0 -11 2 -8 6 3 3 1387 -628
3074 -1402 1688 -773 3075 -1408 3082 -1411 9 -4 12 26 12 128 l-1 134 -3074
1280 c-1690 704 -3071 1281 -3066 1283 4 1 1352 -502 2996 -1119 1645 -617
3025 -1134 3068 -1150 l77 -28 0 133 0 133 -3081 1027 -3081 1027 -37 -22 -36
-21 19 21 c11 12 15 21 9 21 -5 0 -17 -8 -26 -17z m73 -3 c-8 -5 -19 -10 -25
-10 -5 0 -3 5 5 10 8 5 20 10 25 10 6 0 3 -5 -5 -10z m-173 -35 c0 -8 -4 -12
-9 -9 -5 3 -6 10 -3 15 9 13 12 11 12 -6z m108 -86 c-5 -26 -15 -38 -15 -18 0
11 -2 11 -10 -1 -5 -8 -7 -24 -4 -35 4 -11 3 -17 -1 -13 -10 10 -14 69 -5 63
4 -3 13 2 20 10 17 20 20 19 15 -6z"/>
<path d="M6344 6302 c-6 -4 -10 -15 -9 -24 2 -9 -3 -22 -11 -29 -8 -6 -11 -16
-7 -23 18 -28 7 -86 -58 -308 -38 -131 -100 -346 -139 -478 -38 -132 -101
-348 -140 -480 -38 -132 -101 -348 -140 -480 -38 -132 -101 -348 -140 -480
-38 -132 -101 -348 -140 -480 -38 -132 -101 -348 -140 -480 -38 -132 -101
-348 -140 -480 -38 -132 -101 -348 -140 -480 -38 -132 -101 -348 -140 -480
-38 -132 -101 -347 -139 -478 -38 -130 -106 -363 -151 -517 -45 -154 -103
-352 -129 -440 l-47 -160 129 -3 c71 -1 132 0 134 2 3 3 353 1395 779 3093
426 1698 771 3070 768 3048 -3 -22 -291 -1410 -640 -3084 -349 -1675 -634
-3049 -634 -3053 0 -5 59 -7 132 -6 l132 3 513 3075 c452 2710 512 3080 502
3115 -5 22 -10 43 -10 48 1 10 16 4 17 -8 0 -5 4 -24 7 -40 5 -20 -129 -1122
-373 -3075 -209 -1675 -383 -3062 -386 -3082 l-6 -38 136 0 c130 0 136 1 136
20 0 11 114 1396 254 3078 140 1681 254 3087 252 3124 -2 68 -12 93 -32 80z
m19 -33 c-8 -8 -13 -7 -18 2 -6 8 -4 10 5 4 10 -6 12 -4 6 11 -6 15 -5 17 5 7
9 -10 10 -16 2 -24z"/>
<path d="M6489 6287 c6 -8 7 -18 3 -22 -4 -5 -1 -5 6 -1 10 6 10 11 1 22 -6 8
-14 14 -16 14 -3 0 0 -6 6 -13z"/>
<path d="M6599 6278 c-11 -37 -6 -50 31 -79 22 -18 38 -35 35 -38 -3 -2 9 -19
25 -37 25 -25 28 -33 16 -37 -10 -4 -32 12 -64 49 -40 45 -49 51 -48 32 1 -13
-4 -36 -12 -51 -13 -28 22 -94 1634 -3070 906 -1673 1648 -3043 1649 -3045 1
-1 61 -1 134 0 l131 3 -1766 3028 c-971 1665 -1764 3030 -1762 3032 2 3 857
-1360 1900 -3028 l1895 -3032 131 -3 c73 -1 132 0 132 3 0 3 -904 1362 -2010
3020 -1105 1658 -2010 3018 -2010 3021 0 4 7 1 15 -6 8 -7 15 -8 15 -2 0 5 -7
15 -15 22 -8 7 -15 18 -15 24 0 6 14 -5 30 -24 16 -19 30 -30 30 -24 0 5 -6
17 -12 24 -7 8 4 -1 25 -19 20 -19 37 -39 37 -45 0 -5 -11 1 -25 14 -15 14
-25 18 -25 11 0 -11 -3 -11 -15 -1 -8 7 -15 9 -15 6 0 -4 959 -1361 2132
-3017 l2131 -3009 134 0 133 0 -2251 3001 c-1238 1650 -2248 3003 -2246 3006
3 2 1075 -1347 2382 -2999 l2378 -3003 135 -3 c129 -2 135 -2 120 15 -158 183
-4968 5966 -4965 5969 3 3 1184 -1343 2626 -2990 l2621 -2996 132 0 131 0 -19
22 c-10 12 -1254 1370 -2764 3018 -1510 1648 -2754 3007 -2765 3021 -11 13 -3
8 18 -10 20 -19 37 -30 37 -25 0 6 -9 19 -20 29 -11 10 -18 20 -15 23 3 3 -2
14 -12 24 -30 33 3 18 37 -17 19 -19 38 -35 44 -35 5 0 -1 11 -14 25 -14 15
-18 25 -11 25 11 0 11 3 1 15 -7 8 -9 15 -6 15 4 0 1360 -958 3014 -2130
l3007 -2130 3 131 c1 73 1 133 0 134 -19 16 -6040 4025 -6044 4025 -4 0 -1 -7
6 -15 7 -8 8 -15 2 -15 -5 0 -15 7 -22 15 -7 8 -17 15 -22 15 -6 0 -4 -8 3
-17 12 -14 10 -14 -13 1 -31 20 -37 32 -12 22 8 -3 12 -2 9 4 -9 14 9 12 23
-2 6 -6 14 -9 17 -6 3 3 -10 16 -30 28 -20 12 -34 24 -32 26 3 3 3975 -2474
6040 -3768 l77 -48 0 133 0 134 -3049 1779 c-1678 978 -3048 1780 -3046 1782
2 3 1372 -736 3043 -1642 1672 -905 3042 -1646 3046 -1646 3 0 6 58 6 130 l0
130 -3068 1534 c-2556 1278 -3073 1533 -3100 1530 -20 -2 -31 0 -27 6 3 6 4
10 1 10 -3 0 -6 -1 -7 -2z m93 -36 c7 -7 8 -12 2 -12 -6 0 -19 -7 -30 -15 -13
-10 -14 -13 -3 -10 9 3 22 -1 29 -10 11 -13 10 -14 -5 -9 -14 6 -16 4 -10 -7
5 -8 -10 1 -33 20 -31 24 -40 36 -32 45 12 15 66 14 82 -2z m-12 -168 c-1 -5
-12 5 -26 21 -16 18 -24 23 -20 12 3 -11 2 -16 -4 -12 -6 3 -10 2 -10 -4 0 -5
5 -13 10 -16 6 -3 10 -12 10 -18 0 -7 -9 -1 -20 13 -11 14 -20 19 -20 12 0 -7
-4 -10 -10 -7 -5 3 -10 11 -10 16 0 6 5 7 12 3 8 -5 9 -2 5 10 -4 10 -3 15 3
11 7 -4 9 5 5 24 l-5 31 40 -44 c22 -24 40 -47 40 -52z m15 66 c10 -11 16 -20
13 -20 -3 0 -13 9 -23 20 -10 11 -16 20 -13 20 3 0 13 -9 23 -20z m65 -25 c7
-8 8 -15 2 -15 -5 0 -15 7 -22 15 -7 8 -8 15 -2 15 5 0 15 -7 22 -15z"/>
<path d="M6614 6239 c-2 -4 3 -12 11 -19 11 -9 19 -8 37 4 12 9 20 17 18 17
-18 5 -62 4 -66 -2z m36 -13 c-7 -7 -13 -7 -20 0 -6 6 -3 10 10 10 13 0 16 -4
10 -10z"/>
<path d="M3050 4585 c-1669 -904 -3039 -1646 -3043 -1647 -4 -2 -6 -63 -5
-136 l3 -132 3028 1766 c1665 971 3030 1764 3032 1762 3 -2 -1360 -857 -3028
-1900 l-3032 -1895 -3 -131 c-1 -73 0 -132 3 -132 3 0 1362 905 3020 2010
1658 1106 3018 2010 3021 2010 4 0 1 -7 -6 -15 -7 -8 -8 -15 -2 -15 5 0 15 7
22 15 7 8 18 15 24 15 6 0 -5 -14 -24 -30 -19 -16 -30 -30 -24 -30 5 0 17 6
24 13 8 6 -1 -5 -19 -25 -19 -21 -39 -38 -45 -38 -5 0 1 11 14 25 14 15 18 25
11 25 -11 0 -11 3 -1 15 7 8 9 15 6 15 -4 0 -1361 -959 -3017 -2132 l-3009
-2131 0 -134 0 -133 3001 2251 c1650 1238 3003 2248 3006 2246 2 -3 -1347
-1075 -2999 -2382 l-3003 -2378 -3 -135 c-2 -129 -2 -135 15 -120 183 158
5966 4968 5969 4965 3 -3 -1343 -1184 -2990 -2626 l-2996 -2621 0 -132 0 -131
22 19 c16 14 6045 5536 6156 5639 11 10 9 12 -10 11 -13 -1 -35 4 -50 11 -15
7 -28 13 -30 13 -2 0 -1369 -740 -3038 -1645z m3044 1623 c-5 -8 -2 -9 10 -5
10 4 15 3 11 -3 -4 -7 5 -9 24 -5 l31 5 -44 -40 c-24 -22 -47 -40 -52 -40 -5
1 5 12 21 26 18 16 23 24 12 20 -11 -3 -16 -2 -12 4 3 6 2 10 -4 10 -5 0 -13
-4 -16 -10 -3 -5 -12 -10 -18 -10 -7 0 -1 9 13 20 14 11 19 20 12 20 -7 0 -10
5 -7 10 3 6 11 10 16 10 6 0 7 -5 3 -12z"/>
<path d="M6280 6211 c0 -5 -11 -8 -24 -5 -20 3 -32 -4 -57 -36 -17 -21 -35
-37 -39 -35 -4 2 -27 -17 -51 -43 -24 -26 -32 -36 -16 -23 15 14 27 21 27 18
0 -4 -1197 -1375 -2660 -3047 l-2660 -3040 133 0 134 0 2513 3016 c1383 1659
2516 3012 2518 3005 3 -9 7 -9 18 0 8 6 14 8 14 5 0 -4 -958 -1360 -2130
-3014 l-2130 -3007 131 -3 c73 -1 133 -1 134 0 16 19 4025 6040 4025 6044 0 4
-7 1 -15 -6 -8 -7 -15 -8 -15 -2 0 5 7 15 15 22 8 7 15 17 15 22 0 6 -8 4 -17
-3 -14 -12 -14 -10 1 14 20 30 32 36 22 11 -3 -8 -2 -12 4 -9 14 9 12 -9 -2
-23 -6 -6 -9 -14 -6 -17 3 -3 16 10 28 30 12 20 24 34 26 32 3 -3 -2474 -3975
-3768 -6039 l-48 -78 133 0 134 0 1779 3049 c978 1678 1780 3048 1782 3046 3
-2 -736 -1372 -1642 -3043 -905 -1672 -1646 -3042 -1646 -3046 0 -3 58 -6 130
-6 l130 0 1525 3050 c839 1677 1525 3053 1525 3056 0 3 -4 2 -10 -1 -5 -3 -10
-2 -10 4 0 5 5 13 10 16 6 3 10 12 10 18 0 7 -7 4 -14 -6 -12 -16 -13 -15 -13
9 0 14 3 21 6 15 5 -7 12 -2 21 13 15 30 34 24 25 -7 -5 -17 -4 -19 4 -7 6 8
11 12 11 8 0 -5 -633 -1388 -1406 -3075 -773 -1688 -1408 -3074 -1411 -3080
-4 -10 26 -13 128 -13 l134 1 1280 3074 c704 1690 1281 3071 1283 3066 1 -4
-502 -1352 -1119 -2996 -617 -1645 -1134 -3025 -1150 -3067 l-28 -78 133 0
133 0 1026 3080 c1007 3019 1027 3081 1012 3110 -16 30 -25 38 -25 21z m-39
-28 c-1 -4 -7 -8 -13 -8 -7 0 -14 -10 -14 -23 -1 -13 -9 -31 -18 -40 -16 -16
-17 -16 -10 2 6 15 4 17 -7 11 -8 -5 1 10 20 33 30 39 44 47 42 25z m69 -27
c0 -12 -5 -7 -19 24 -11 24 -11 24 3 6 9 -11 16 -24 16 -30z m-150 -29 c0 -2
-10 -12 -22 -23 l-23 -19 19 23 c18 21 26 27 26 19z m-40 -82 c-7 -9 -15 -13
-18 -10 -3 2 1 11 8 20 7 9 15 13 18 10 3 -2 -1 -11 -8 -20z"/>
<path d="M6496 6175 c-9 -26 -7 -32 5 -12 6 10 9 21 6 23 -2 3 -7 -2 -11 -11z"/>
<path d="M6259 6178 c-5 -11 -6 -68 -1 -64 6 6 11 66 5 66 -1 0 -3 -1 -4 -2z"/>
<path d="M6451 6173 c-1 -7 281 -1364 625 -3015 344 -1652 632 -3038 641
-3080 l16 -78 134 0 133 0 -7 28 c-3 15 -352 1406 -774 3092 -422 1686 -768
3059 -768 3053z"/>
<path d="M6790 6096 c0 -5 5975 -4736 5998 -4750 9 -6 12 22 12 123 l0 131
-3000 2250 c-1650 1237 -3002 2250 -3005 2250 -3 0 -5 -2 -5 -4z"/>
<path d="M6764 6051 c16 -16 23 -30 16 -33 -6 -2 1286 -1357 2871 -3011 l2882
-3007 129 0 c70 0 128 2 128 5 0 3 -1332 1337 -2961 2966 -1628 1628 -2958
2963 -2956 2966 4 4 5508 -5262 5850 -5596 l78 -76 -3 136 -3 137 -3023 2771
c-1663 1524 -3026 2771 -3029 2771 -4 0 6 -13 21 -29z m101 -109 c-5 -5 -75
65 -75 75 0 4 18 -10 40 -32 22 -21 38 -41 35 -43z"/>
<path d="M6840 6017 c19 -19 1368 -1201 2998 -2626 l2962 -2591 0 133 0 134
-2987 2489 c-1642 1369 -2991 2491 -2997 2493 -6 2 5 -12 24 -32z"/>
<path d="M3723 3018 c-1303 -1646 -2373 -2999 -2377 -3005 -6 -10 22 -13 123
-13 l131 0 2251 3001 c1238 1650 2248 3003 2246 3006 -3 2 -1071 -1343 -2374
-2989z"/>
<path d="M2960 3105 l-2955 -2834 -3 -135 -3 -136 2966 2965 c1631 1630 2965
2967 2965 2970 0 3 -3 5 -7 4 -5 0 -1338 -1276 -2963 -2834z"/>
</g>
</svg>
