<?xml version="1.0" encoding="iso-8859-1"?>
<!-- Generator: Adobe Illustrator 19.0.0, SVG Export Plug-In . SVG Version: 6.00 Build 0)  -->
<svg xmlns="http://www.w3.org/2000/svg" xmlns:xlink="http://www.w3.org/1999/xlink" version="1.1" id="Layer_1" x="0px" y="0px" viewBox="0 0 512 512" style="enable-background:new 0 0 512 512;" xml:space="preserve" width="512" height="512">
<g id="XMLID_1586_">
	<g id="XMLID_1587_">
		<g id="XMLID_1588_">
			<g id="XMLID_1589_">
				<g id="XMLID_1590_">
					<polygon id="XMLID_1591_" style="fill:#FFE360;" points="264.638,302.007 187.212,302.007 118.774,381.909 188.939,381.909        94.592,504.5 315.453,341.082 231.17,341.082      "/>
					<polygon id="XMLID_1592_" style="fill:#FFC55E;" points="218.529,302.007 187.212,302.007 118.774,381.909 188.939,381.909        94.592,504.5 170.686,448.203 234.482,365.3 164.317,365.3      "/>
				</g>
			</g>
			<g id="XMLID_1593_">
				<path id="XMLID_1594_" style="fill:#FF5E5E;" d="M446.02,175.84C446.02,318.45,256,441.25,256,441.25s-56.13-36.28-107.38-92.3      c-43.05-47.04-82.64-108.02-82.64-173.11c0-56.28,45.62-101.91,101.9-101.91c29.84,0,56.67,12.83,75.29,33.27      c4.87,5.33,9.18,11.19,12.83,17.47c17.65-30.34,50.49-50.74,88.12-50.74c8.15,0,16.08,0.96,23.68,2.77      c22.51,5.35,42.11,18.18,56.07,35.7C437.74,129.8,446.02,151.86,446.02,175.84z"/>
				<path id="XMLID_1595_" style="fill:#F74242;" d="M412.36,147.41L307.67,269.64c-2.28,2.66-5.61,4.2-9.12,4.2H199.5      c-10.25,0-15.78-12.03-9.12-19.81l42.99-50.19h-87.96c-11.67,0-16.47-14.97-6.98-21.76l104.74-74.88      c4.87,5.33,9.18,11.19,12.83,17.47c17.65-30.34,50.49-50.74,88.12-50.74c8.15,0,16.08,0.96,23.68,2.77l-36.98,50.91h72.42      C413.5,127.61,419.03,139.63,412.36,147.41z"/>
				<path id="XMLID_1596_" style="fill:#F74242;" d="M446.02,175.84C446.02,318.45,256,441.25,256,441.25s-56.13-36.28-107.38-92.3      c216.65-3.75,264.92-155.73,275.25-236.55C437.74,129.8,446.02,151.86,446.02,175.84z"/>
			</g>
			<g id="XMLID_1597_">
				<g id="XMLID_1598_">
					<g id="XMLID_1599_">
						<polygon id="XMLID_1600_" style="fill:#FFE360;" points="307.273,139.606 403.245,139.606 298.552,261.836 199.498,261.836         259.447,191.84 145.413,191.84 403.245,7.5 372.391,49.969       "/>
						<polygon id="XMLID_1601_" style="fill:#FFC55E;" points="372.391,49.969 203.68,170.591 317.714,170.591 239.561,261.836         199.498,261.836 259.447,191.84 145.413,191.84 403.245,7.5       "/>
					</g>
				</g>
				<path id="XMLID_1602_" style="fill:#FF5E5E;" d="M321.06,270.24l-72.9,60.34l-67.49-0.64v-95.92h76.89      C284.59,234.02,308.22,248.56,321.06,270.24z"/>
			</g>
		</g>
	</g>
	<g id="XMLID_1603_">
		<path id="XMLID_1604_" d="M367.831,69.008l41.482-57.1c2.162-2.976,1.847-7.081-0.745-9.691c-2.591-2.61-6.693-2.957-9.685-0.818    L252.257,106.231c-20.869-25.36-51.314-39.801-84.372-39.801c-60.328,0-109.409,49.081-109.409,109.409    c0,37.465,12.62,76.787,37.509,116.873c1.42,2.288,3.871,3.545,6.379,3.545c1.35,0,2.717-0.365,3.949-1.129    c3.519-2.185,4.601-6.809,2.416-10.328c-23.392-37.674-35.252-74.334-35.252-108.96c0-52.057,42.352-94.409,94.409-94.409    c28.173,0,54.153,12.154,72.144,33.544l-32.181,23.008c-3.37,2.409-4.148,7.094-1.739,10.463    c2.409,3.371,7.094,4.148,10.463,1.739L370.018,40.476l-68.813,94.723c-1.658,2.282-1.895,5.3-0.615,7.813    c1.281,2.513,3.862,4.095,6.683,4.095h79.673l-81.468,95.114c-13.682-9.981-30.401-15.696-47.92-15.696h-17.942l25.527-29.805    c1.905-2.224,2.341-5.354,1.117-8.014c-1.225-2.66-3.885-4.365-6.813-4.365h-90.649l19.62-14.027    c3.37-2.409,4.148-7.094,1.739-10.463c-2.409-3.369-7.093-4.147-10.463-1.739l-38.643,27.628c-2.652,1.896-3.775,5.288-2.78,8.392    s3.882,5.209,7.142,5.209h97.736l-23.283,27.184H200c-4.142,0-7.5,3.358-7.5,7.5s3.358,7.5,7.5,7.5h57.559    c25.705,0,49.314,15.071,60.146,38.396c1.27,2.734,3.978,4.343,6.807,4.343c1.057,0,2.132-0.225,3.154-0.7    c3.757-1.745,5.388-6.205,3.643-9.961c-3.722-8.013-8.674-15.231-14.568-21.472l92.2-107.644c1.905-2.224,2.341-5.354,1.117-8.014    c-1.224-2.66-3.885-4.365-6.813-4.365h-81.253l36.055-49.63c46.03,6.802,80.477,46.538,80.477,93.363    c0,43.12-18.238,89.022-54.208,136.43c-2.504,3.3-1.858,8.004,1.441,10.508c1.355,1.028,2.948,1.525,4.527,1.525    c2.266,0,4.505-1.023,5.98-2.967c37.995-50.076,57.259-99.028,57.259-145.497C453.524,124.178,417.342,79.936,367.831,69.008z"/>
		<path id="XMLID_1605_" d="M373.484,337.661c-3.099-2.749-7.838-2.465-10.588,0.633c-43.453,48.978-92.627,84.152-106.895,93.922    c-16.618-11.386-80.594-57.262-127.921-119.426c-2.509-3.297-7.216-3.933-10.51-1.424c-3.296,2.509-3.934,7.215-1.424,10.51    c6.966,9.15,14.243,17.93,21.651,26.296l-24.718,28.859c-1.905,2.224-2.341,5.354-1.117,8.014c1.224,2.66,3.885,4.365,6.813,4.365    h54.927L88.647,499.926c-2.282,2.964-2.03,7.157,0.59,9.827c1.458,1.486,3.4,2.247,5.355,2.247c1.558,0,3.125-0.484,4.458-1.471    l118.666-87.802c19.368,15.158,32.895,23.973,34.212,24.824c1.239,0.801,2.655,1.201,4.071,1.201s2.832-0.4,4.071-1.201    c2.483-1.604,61.417-39.982,114.046-99.302C376.866,345.15,376.582,340.41,373.484,337.661z M147.985,359.337    c4.895,5.214,9.811,10.243,14.701,15.073h-27.611L147.985,359.337z M133.249,466.566l53.561-69.594    c6.532,5.793,12.845,11.154,18.805,16.049L133.249,466.566z"/>
		<path id="XMLID_1609_" d="M287.241,277.159h-0.093c-4.142,0-7.454,3.358-7.454,7.5s3.404,7.5,7.546,7.5s7.5-3.358,7.5-7.5    S291.383,277.159,287.241,277.159z"/>
		<path id="XMLID_1610_" d="M290.279,323.855c-0.013,0-0.026,0-0.04,0c-4.123,0-7.431,3.333-7.452,7.461    c-0.022,4.142,3.365,7.518,7.507,7.54c0.013,0,0.026,0,0.04,0c4.124,0,7.478-3.332,7.499-7.461    c0.021-4.142-3.319-7.517-7.461-7.539L290.279,323.855z"/>
		<path id="XMLID_1611_" d="M303.148,304.5c0.014,0,0.027,0,0.041,0c4.123,0,7.477-3.332,7.499-7.46    c0.021-4.142-3.318-7.518-7.46-7.54l-0.093,0c-0.014,0-0.027,0-0.041,0c-4.123,0-7.431,3.333-7.453,7.461    C295.62,301.102,299.006,304.478,303.148,304.5z"/>
		<path id="XMLID_1612_" d="M262.253,35.946c0.013,0,0.026,0,0.039,0c4.124,0,7.478-3.333,7.499-7.462l0.013-2.602    c0.021-4.142-3.32-7.517-7.462-7.538c-0.013,0-0.026,0-0.039,0c-4.124,0-7.478,3.333-7.499,7.462l-0.013,2.602    C254.77,32.55,258.111,35.925,262.253,35.946z"/>
		<path id="XMLID_1613_" d="M262.254,46.726c-0.013,0-0.026,0-0.039,0c-4.124,0-7.478,3.333-7.499,7.462l-0.013,2.602    c-0.021,4.142,3.32,7.517,7.462,7.538c0.013,0,0.026,0,0.039,0c4.124,0,7.478-3.333,7.499-7.462l0.013-2.602    C269.737,50.122,266.396,46.747,262.254,46.726z"/>
		<path id="XMLID_1614_" d="M275.104,48.873l2.602,0.014c0.014,0,0.027,0,0.041,0c4.123,0,7.477-3.332,7.499-7.46    c0.021-4.142-3.318-7.518-7.46-7.54l-2.602-0.014c-4.119,0-7.518,3.319-7.54,7.46C267.622,45.476,270.962,48.851,275.104,48.873z"/>
		<path id="XMLID_1615_" d="M246.722,48.785l2.602,0.014c0.014,0,0.027,0,0.041,0c4.123,0,7.477-3.332,7.499-7.46    c0.021-4.142-3.318-7.518-7.46-7.54l-2.602-0.014c-0.014,0-0.027,0-0.041,0c-4.123,0-7.477,3.332-7.499,7.46    C239.24,45.388,242.58,48.763,246.722,48.785z"/>
		<path id="XMLID_1616_" d="M426.428,48.815c0.013,0,0.026,0,0.039,0c4.124,0,7.478-3.333,7.499-7.462l0.013-2.602    c0.021-4.142-3.32-7.517-7.462-7.538c-0.013,0-0.026,0-0.039,0c-4.124,0-7.478,3.333-7.499,7.462l-0.013,2.602    C418.945,45.419,422.286,48.794,426.428,48.815z"/>
		<path id="XMLID_1617_" d="M426.429,59.595c-0.013,0-0.026,0-0.039,0c-4.124,0-7.478,3.333-7.499,7.462l-0.013,2.602    c-0.021,4.142,3.32,7.517,7.462,7.538c0.013,0,0.026,0,0.039,0c4.124,0,7.478-3.333,7.499-7.462l0.013-2.602    C433.912,62.991,430.571,59.616,426.429,59.595z"/>
		<path id="XMLID_1618_" d="M439.281,61.743l2.602,0.013c0.013,0,0.026,0,0.039,0c4.124,0,7.478-3.333,7.499-7.462    c0.021-4.142-3.32-7.517-7.462-7.538l-2.602-0.013c-0.013,0-0.026,0-0.039,0c-4.124,0-7.478,3.333-7.499,7.462    C431.798,58.347,435.139,61.722,439.281,61.743z"/>
		<path id="XMLID_1619_" d="M403.436,54.116c-0.021,4.142,3.32,7.517,7.462,7.538l2.602,0.013c0.013,0,0.026,0,0.039,0    c4.124,0,7.478-3.333,7.499-7.462c0.021-4.142-3.32-7.517-7.462-7.538l-2.602-0.013c-0.013,0-0.026,0-0.039,0    C406.811,46.654,403.457,49.987,403.436,54.116z"/>
		<path id="XMLID_1620_" d="M218.803,457.217c0.014,0,0.027,0,0.041,0c4.123,0,7.477-3.332,7.499-7.46l0.014-2.602    c0.021-4.142-3.318-7.518-7.46-7.54c-0.014,0-0.027,0-0.041,0c-4.123,0-7.477,3.332-7.499,7.46l-0.014,2.602    C211.321,453.819,214.661,457.195,218.803,457.217z"/>
		<path id="XMLID_1621_" d="M218.806,467.997c-0.013,0-0.026,0-0.039,0c-4.124,0-7.478,3.333-7.499,7.462l-0.013,2.602    c-0.021,4.142,3.32,7.517,7.462,7.538c0.013,0,0.026,0,0.039,0c4.124,0,7.478-3.333,7.499-7.462l0.013-2.602    C226.289,471.393,222.948,468.018,218.806,467.997z"/>
		<path id="XMLID_1622_" d="M234.335,455.158l-2.602-0.013c-4.123,0.015-7.517,3.32-7.538,7.462s3.32,7.517,7.462,7.538l2.602,0.013    c0.013,0,0.026,0,0.039,0c4.124,0,7.478-3.333,7.499-7.462C241.818,458.554,238.478,455.179,234.335,455.158z"/>
		<path id="XMLID_1623_" d="M205.953,455.069l-2.602-0.013c-0.013,0-0.026,0-0.039,0c-4.124,0-7.478,3.333-7.499,7.462    c-0.021,4.142,3.32,7.517,7.462,7.538l2.602,0.013c0.013,0,0.026,0,0.039,0c4.124,0,7.478-3.333,7.499-7.462    C213.436,458.465,210.095,455.09,205.953,455.069z"/>
	</g>
</g>















</svg>
