<?xml version="1.0" encoding="UTF-8" standalone="no"?>
<!-- Created with Inkscape (http://www.inkscape.org/) -->

<svg
   version="1.1"
   id="svg2952"
   xml:space="preserve"
   width="682.66669"
   height="682.66669"
   viewBox="0 0 682.66669 682.66669"
   xmlns="http://www.w3.org/2000/svg"
   xmlns:svg="http://www.w3.org/2000/svg"><defs
     id="defs2956"><clipPath
       clipPathUnits="userSpaceOnUse"
       id="clipPath2966"><path
         d="M 0,512 H 512 V 0 H 0 Z"
         id="path2964" /></clipPath></defs><g
     id="g2958"
     transform="matrix(1.3333333,0,0,-1.3333333,0,682.66667)"><g
       id="g2960"><g
         id="g2962"
         clip-path="url(#clipPath2966)"><g
           id="g2968"
           transform="translate(377.7461,358.9546)"><path
             d="m 0,0 c -30.431,-14.063 -73.69,-22.855 -121.703,-22.855 -48.013,0 -91.273,8.792 -121.703,22.855 -33.207,-18.551 -78.528,-43.156 -126.799,-55.224 38.481,-9.621 75.083,-28.302 105.173,-43.665 11.402,31.948 40.885,55.891 76.965,57.573 17.115,0.797 35.998,-3.359 55.483,-16.385 6.608,-4.417 15.153,-4.417 21.761,0 19.486,13.026 38.368,17.182 55.484,16.385 36.08,-1.682 65.563,-25.625 76.965,-57.574 30.09,15.364 66.691,34.045 105.173,43.666 C 78.526,-43.156 33.206,-18.551 0,0"
             style="fill:#7b6c79;fill-opacity:1;fill-rule:nonzero;stroke:none"
             id="path2970" /></g><g
           id="g2972"
           transform="translate(126.4365,291.8672)"><path
             d="m 0,0 c -10.784,4.168 -10.784,19.428 0.039,23.495 17.848,6.707 37.596,17.462 55.893,28.16 -18.107,3.87 -34.365,9.118 -48.029,15.432 -33.207,-18.551 -78.527,-43.156 -126.799,-55.224 38.482,-9.62 75.083,-28.301 105.173,-43.665 4,11.207 10.232,21.423 18.186,30.045 C 2.981,-1.164 1.494,-0.578 0,0"
             style="fill:#665e68;fill-opacity:1;fill-rule:nonzero;stroke:none"
             id="path2974" /></g><g
           id="g2976"
           transform="translate(488.8496,342.1655)"><path
             d="m 0,0 c -26.869,27.416 -82.643,82.846 -122.602,112.518 -45.701,33.937 -83.609,11.663 -100.599,-2.658 -5.539,-4.668 -13.672,-4.668 -19.211,0 -16.99,14.321 -54.899,36.595 -100.6,2.658 C -382.971,82.846 -438.744,27.416 -465.613,0 c -10.062,-10.266 -15.696,-24.061 -15.696,-38.435 55.409,13.852 106.934,40.27 140.707,60.212 23.438,13.839 52.29,14.96 76.671,2.86 0.29,-0.144 0.579,-0.287 0.867,-0.429 19.092,-9.386 41.422,-9.386 60.514,0 0.288,0.142 0.577,0.285 0.867,0.429 24.381,12.1 53.234,10.979 76.671,-2.86 C -91.238,1.835 -39.713,-24.583 15.695,-38.435 15.695,-24.061 10.062,-10.266 0,0"
             style="fill:#ed5469;fill-opacity:1;fill-rule:nonzero;stroke:none"
             id="path2978" /></g><g
           id="g2980"
           transform="translate(78.5175,342.1655)"><path
             d="m 0,0 c 26.869,27.416 82.644,82.846 122.602,112.519 7.286,5.41 14.373,9.386 21.209,12.199 C 124.214,132.83 97.463,134.902 67.32,112.519 27.361,82.846 -28.412,27.416 -55.281,0 c -10.062,-10.266 -15.696,-24.061 -15.696,-38.435 20.374,5.093 40.218,11.889 58.853,19.434 C -9.46,-11.963 -5.367,-5.477 0,0"
             style="fill:#e63850;fill-opacity:1;fill-rule:nonzero;stroke:none"
             id="path2982" /></g><g
           id="g2984"
           transform="translate(108.0849,224.8086)"><path
             d="m 0,0 c -1.358,13.372 0.386,26.368 4.629,38.256 -30.09,15.364 -66.692,31.045 -105.173,40.666 0,-14.375 5.634,-28.17 15.695,-38.436 21.05,-21.478 59.84,-60.148 94.869,-90.159 C 5.092,-32.921 1.629,-16.034 0,0"
             style="fill:#ed5469;fill-opacity:1;fill-rule:nonzero;stroke:none"
             id="path2986" /></g><g
           id="g2988"
           transform="translate(107.8994,226.9355)"><path
             d="m 0,0 c -15.232,14.762 -28.798,28.408 -38.552,38.359 -6.405,6.537 -11.007,14.505 -13.511,23.141 -15.505,5.881 -31.724,11.152 -48.295,15.295 0,-14.375 5.633,-28.169 15.695,-38.436 21.05,-21.478 59.84,-60.148 94.868,-90.159 C 5.277,-35.048 1.814,-18.16 0.186,-2.127 0.113,-1.417 0.055,-0.708 0,0"
             style="fill:#e63850;fill-opacity:1;fill-rule:nonzero;stroke:none"
             id="path2990" /></g><g
           id="g2992"
           transform="translate(399.372,263.0649)"><path
             d="M 0,0 C 4.243,-11.889 5.987,-24.884 4.629,-38.256 3,-54.29 -0.463,-71.177 -5.392,-87.93 c 35.03,30.011 73.82,68.681 94.87,90.16 10.061,10.266 15.695,24.061 15.695,38.436 C 66.691,31.045 30.09,15.364 0,0"
             style="fill:#ed5469;fill-opacity:1;fill-rule:nonzero;stroke:none"
             id="path2994" /></g><g
           id="g2996"
           transform="translate(256.0429,329.0996)"><path
             d="m 0,0 c 50.088,0 95.013,9.564 125.585,24.704 -6.356,3.496 -12.31,6.903 -17.79,10.139 -23.438,13.839 -52.29,14.96 -76.671,2.86 -0.29,-0.144 -0.579,-0.287 -0.867,-0.429 -19.092,-9.386 -41.422,-9.386 -60.515,0 -0.287,0.142 -0.576,0.285 -0.866,0.429 -24.381,12.1 -53.233,10.979 -76.671,-2.86 -5.48,-3.236 -11.434,-6.643 -17.79,-10.139 C -95.013,9.564 -50.088,0 0,0"
             style="fill:#e8f9fc;fill-opacity:1;fill-rule:nonzero;stroke:none"
             id="path2998" /></g><g
           id="g3000"
           transform="translate(223.0263,367.7046)"><path
             d="m 0,0 c -23.972,11.126 -51.944,9.721 -74.778,-3.762 -5.481,-3.236 -11.435,-6.643 -17.79,-10.139 12.288,-6.085 26.898,-11.267 43.227,-15.292 C -30.908,-18.712 -13.391,-7.671 0,0"
             style="fill:#d9e7ec;fill-opacity:1;fill-rule:nonzero;stroke:none"
             id="path3002" /></g><g
           id="g3004"
           transform="translate(383.5439,291.2387)"><path
             d="m 0,0 c -15.669,18.174 -37.373,28.792 -61.113,29.899 -19.326,0.9 -38.092,-4.641 -55.785,-16.468 -6.442,-4.306 -14.765,-4.306 -21.206,0 -17.693,11.827 -36.458,17.369 -55.785,16.468 -23.74,-1.107 -45.444,-11.725 -61.113,-29.899 -15.753,-18.272 -23.391,-42.503 -20.954,-66.481 6.66,-65.558 42.303,-139.375 81.143,-168.051 17.707,-13.073 38.575,-18.806 58.302,-17.602 5.979,0.365 12.04,0.365 18.02,0 11.887,-0.725 35.269,0.596 58.303,17.602 38.839,28.676 74.482,102.493 81.142,168.051 C 23.391,-42.503 15.753,-18.272 0,0"
             style="fill:#f78b98;fill-opacity:1;fill-rule:nonzero;stroke:none"
             id="path3006" /></g><g
           id="g3008"
           transform="translate(247.9531,56.7065)"><path
             d="m 0,0 c -38.84,28.676 -74.481,102.493 -81.143,168.051 -2.435,23.978 5.203,48.209 20.955,66.481 9.795,11.363 21.952,19.772 35.489,24.749 -10.934,3.944 -22.167,5.683 -33.599,5.15 -23.74,-1.106 -45.444,-11.724 -61.113,-29.899 -15.753,-18.272 -23.391,-42.503 -20.954,-66.481 6.66,-65.558 42.302,-139.375 81.142,-168.051 17.707,-13.073 38.576,-18.806 58.303,-17.602 5.979,0.365 12.04,0.365 18.02,0 5.077,-0.309 12.255,-0.24 20.604,1.259 C 24.586,-13.97 11.612,-8.574 0,0"
             style="fill:#f27182;fill-opacity:1;fill-rule:nonzero;stroke:none"
             id="path3010" /></g><g
           id="g3012"
           transform="translate(287.124,366.8022)"><path
             d="m 0,0 c -0.29,-0.144 -0.579,-0.287 -0.866,-0.428 -19.093,-9.387 -41.423,-9.387 -60.515,0 -0.288,0.141 -0.577,0.284 -0.867,0.428 -24.381,12.1 -53.233,10.979 -76.671,-2.86 -33.773,-19.941 -85.299,-46.36 -140.707,-60.212 38.481,-9.62 75.083,-25.302 105.173,-40.665 11.402,31.948 40.885,55.892 76.965,57.573 17.116,0.797 35.998,-3.358 55.484,-16.384 6.608,-4.418 15.152,-4.418 21.76,0 19.486,13.026 38.368,17.181 55.484,16.384 36.08,-1.681 65.563,-25.625 76.965,-57.573 30.09,15.363 66.691,31.045 105.173,40.665 C 161.97,-49.22 110.444,-22.801 76.672,-2.86 53.233,10.979 24.381,12.1 0,0 Z"
             style="fill:none;stroke:#000000;stroke-width:15;stroke-linecap:round;stroke-linejoin:round;stroke-miterlimit:10;stroke-dasharray:none;stroke-opacity:1"
             id="path3014" /></g><g
           id="g3016"
           transform="translate(108.042,224.8086)"><path
             d="m 0,0 c -1.358,13.372 0.386,26.368 4.629,38.256 -30.09,15.364 -66.692,31.045 -105.173,40.666 0,-14.375 5.634,-28.17 15.695,-38.436 21.05,-21.478 59.84,-60.148 94.869,-90.159 C 5.092,-32.921 1.629,-16.034 0,0 Z"
             style="fill:none;stroke:#000000;stroke-width:15;stroke-linecap:round;stroke-linejoin:round;stroke-miterlimit:10;stroke-dasharray:none;stroke-opacity:1"
             id="path3018" /></g><g
           id="g3020"
           transform="translate(399.3291,263.0649)"><path
             d="M 0,0 C 4.243,-11.889 5.987,-24.884 4.629,-38.256 3,-54.29 -0.463,-71.177 -5.391,-87.93 29.638,-57.919 68.428,-19.249 89.478,2.23 99.539,12.496 105.173,26.291 105.173,40.666 66.691,31.045 30.09,15.364 0,0 Z"
             style="fill:none;stroke:#000000;stroke-width:15;stroke-linecap:round;stroke-linejoin:round;stroke-miterlimit:10;stroke-dasharray:none;stroke-opacity:1"
             id="path3022" /></g><g
           id="g3024"
           transform="translate(256,296.7602)"><path
             d="M 0,0 V -142.293"
             style="fill:none;stroke:#000000;stroke-width:15;stroke-linecap:round;stroke-linejoin:round;stroke-miterlimit:10;stroke-dasharray:none;stroke-opacity:1"
             id="path3026" /></g><g
           id="g3028"
           transform="translate(256,329.0996)"><path
             d="m 0,0 c 50.088,0 95.013,9.564 125.585,24.704 -6.356,3.496 -12.31,6.903 -17.789,10.139 -23.439,13.839 -52.291,14.96 -76.672,2.86 -0.29,-0.144 -0.579,-0.287 -0.866,-0.429 -19.093,-9.386 -41.423,-9.386 -60.515,0 -0.288,0.142 -0.577,0.285 -0.867,0.429 -24.381,12.1 -53.233,10.979 -76.671,-2.86 -5.48,-3.236 -11.434,-6.643 -17.79,-10.139 C -95.013,9.564 -50.088,0 0,0 Z"
             style="fill:none;stroke:#000000;stroke-width:15;stroke-linecap:round;stroke-linejoin:round;stroke-miterlimit:10;stroke-dasharray:none;stroke-opacity:1"
             id="path3030" /></g><g
           id="g3032"
           transform="translate(385.3652,439.5537)"><path
             d="m 0,0 c -6.646,5.51 -13.087,10.621 -19.16,15.13 -45.701,33.937 -83.61,11.662 -100.6,-2.658 -5.539,-4.668 -13.672,-4.668 -19.211,0 -16.99,14.32 -54.898,36.595 -100.599,2.658 -39.959,-29.672 -95.733,-85.103 -122.602,-112.518 -10.061,-10.266 -15.695,-24.061 -15.695,-38.435 55.408,13.852 106.933,40.27 140.707,60.212 23.437,13.839 52.29,14.96 76.671,2.86 0.29,-0.145 0.579,-0.287 0.867,-0.429 19.092,-9.386 41.422,-9.386 60.514,0 0.288,0.142 0.577,0.284 0.867,0.429 24.381,12.1 53.233,10.979 76.672,-2.86 33.772,-19.942 85.298,-46.36 140.706,-60.212 0,14.374 -5.634,28.169 -15.696,38.435 -17.506,17.864 -47.287,47.619 -76.966,74.395"
             style="fill:none;stroke:#000000;stroke-width:15;stroke-linecap:round;stroke-linejoin:round;stroke-miterlimit:10;stroke-dasharray:none;stroke-opacity:1"
             id="path3034" /></g><g
           id="g3036"
           transform="translate(375.2422,126.5522)"><path
             d="m 0,0 c 14.941,30.918 25.468,66.285 28.716,98.256 5.01,49.307 -32.088,93.523 -81.594,95.83 -17.115,0.797 -35.998,-3.358 -55.484,-16.384 -6.608,-4.418 -15.153,-4.418 -21.76,0 -19.486,13.026 -38.369,17.181 -55.484,16.384 -49.506,-2.307 -86.604,-46.523 -81.594,-95.83 6.342,-62.414 40.41,-137.774 80.942,-167.699 22.734,-16.785 45.718,-18.254 57.976,-17.505 6.023,0.367 12.056,0.367 18.08,0 12.258,-0.749 35.242,0.72 57.975,17.505 12.459,9.198 24.304,22.693 34.924,38.781"
             style="fill:none;stroke:#000000;stroke-width:15;stroke-linecap:round;stroke-linejoin:round;stroke-miterlimit:10;stroke-dasharray:none;stroke-opacity:1"
             id="path3038" /></g></g></g></g></svg>
